<mxfile host="app.diagrams.net" modified="2022-11-29T12:32:42.991Z" agent="5.0 (Windows NT 10.0; Win64; x64) AppleWebKit/537.36 (KHTML, like Gecko) Chrome/107.0.0.0 Safari/537.36" version="20.6.0" etag="wzzwIliTVLhY3FuqN_1d" type="github">
  <diagram id="HGxA8_Cz7xE7Voc1O60q" name="หน้า-1">
    <mxGraphModel dx="1021" dy="520" grid="1" gridSize="10" guides="1" tooltips="1" connect="1" arrows="1" fold="1" page="1" pageScale="1" pageWidth="827" pageHeight="1169" math="0" shadow="0">
      <root>
        <mxCell id="0" />
        <mxCell id="1" parent="0" />
        <mxCell id="GZD0tYihuMyEtxiwArV9-5" value="" style="edgeStyle=orthogonalEdgeStyle;rounded=0;orthogonalLoop=1;jettySize=auto;html=1;" edge="1" parent="1" source="GZD0tYihuMyEtxiwArV9-2" target="GZD0tYihuMyEtxiwArV9-4">
          <mxGeometry relative="1" as="geometry" />
        </mxCell>
        <mxCell id="GZD0tYihuMyEtxiwArV9-2" value="&lt;font style=&quot;vertical-align: inherit;&quot;&gt;&lt;font style=&quot;vertical-align: inherit;&quot;&gt;STRAT&lt;/font&gt;&lt;/font&gt;" style="ellipse;whiteSpace=wrap;html=1;fillColor=#fff2cc;strokeColor=#d6b656;" vertex="1" parent="1">
          <mxGeometry x="50" y="140" width="120" height="60" as="geometry" />
        </mxCell>
        <mxCell id="GZD0tYihuMyEtxiwArV9-7" value="" style="edgeStyle=orthogonalEdgeStyle;rounded=0;orthogonalLoop=1;jettySize=auto;html=1;" edge="1" parent="1" source="GZD0tYihuMyEtxiwArV9-4" target="GZD0tYihuMyEtxiwArV9-6">
          <mxGeometry relative="1" as="geometry" />
        </mxCell>
        <mxCell id="GZD0tYihuMyEtxiwArV9-11" value="" style="edgeStyle=orthogonalEdgeStyle;rounded=0;orthogonalLoop=1;jettySize=auto;html=1;" edge="1" parent="1" source="GZD0tYihuMyEtxiwArV9-4" target="GZD0tYihuMyEtxiwArV9-10">
          <mxGeometry relative="1" as="geometry" />
        </mxCell>
        <mxCell id="GZD0tYihuMyEtxiwArV9-4" value="&lt;font style=&quot;vertical-align: inherit;&quot;&gt;&lt;font style=&quot;vertical-align: inherit;&quot;&gt;ตื่นนอน&lt;/font&gt;&lt;/font&gt;" style="whiteSpace=wrap;html=1;fillColor=#dae8fc;strokeColor=#6c8ebf;" vertex="1" parent="1">
          <mxGeometry x="240" y="145" width="120" height="50" as="geometry" />
        </mxCell>
        <mxCell id="GZD0tYihuMyEtxiwArV9-6" value="&lt;font style=&quot;vertical-align: inherit;&quot;&gt;&lt;font style=&quot;vertical-align: inherit;&quot;&gt;&lt;font style=&quot;vertical-align: inherit;&quot;&gt;&lt;font style=&quot;vertical-align: inherit;&quot;&gt;ผับผ้าห่มเก็บที่นอน&lt;/font&gt;&lt;/font&gt;&lt;/font&gt;&lt;/font&gt;" style="whiteSpace=wrap;html=1;fillColor=#f5f5f5;fontColor=#333333;strokeColor=#666666;" vertex="1" parent="1">
          <mxGeometry x="240" y="50" width="120" height="50" as="geometry" />
        </mxCell>
        <mxCell id="GZD0tYihuMyEtxiwArV9-13" value="" style="edgeStyle=orthogonalEdgeStyle;rounded=0;orthogonalLoop=1;jettySize=auto;html=1;" edge="1" parent="1" source="GZD0tYihuMyEtxiwArV9-10" target="GZD0tYihuMyEtxiwArV9-12">
          <mxGeometry relative="1" as="geometry" />
        </mxCell>
        <mxCell id="GZD0tYihuMyEtxiwArV9-10" value="&lt;font style=&quot;vertical-align: inherit;&quot;&gt;&lt;font style=&quot;vertical-align: inherit;&quot;&gt;&lt;font style=&quot;vertical-align: inherit;&quot;&gt;&lt;font style=&quot;vertical-align: inherit;&quot;&gt;อาบน้ำ&lt;/font&gt;&lt;/font&gt;&lt;/font&gt;&lt;/font&gt;" style="whiteSpace=wrap;html=1;fillColor=#dae8fc;strokeColor=#6c8ebf;" vertex="1" parent="1">
          <mxGeometry x="390" y="145" width="120" height="50" as="geometry" />
        </mxCell>
        <mxCell id="GZD0tYihuMyEtxiwArV9-15" value="" style="edgeStyle=orthogonalEdgeStyle;rounded=0;orthogonalLoop=1;jettySize=auto;html=1;" edge="1" parent="1" source="GZD0tYihuMyEtxiwArV9-12" target="GZD0tYihuMyEtxiwArV9-14">
          <mxGeometry relative="1" as="geometry" />
        </mxCell>
        <mxCell id="GZD0tYihuMyEtxiwArV9-12" value="&lt;font style=&quot;vertical-align: inherit;&quot;&gt;&lt;font style=&quot;vertical-align: inherit;&quot;&gt;&lt;font style=&quot;vertical-align: inherit;&quot;&gt;&lt;font style=&quot;vertical-align: inherit;&quot;&gt;&lt;font style=&quot;vertical-align: inherit;&quot;&gt;&lt;font style=&quot;vertical-align: inherit;&quot;&gt;แต่งตัว&lt;/font&gt;&lt;/font&gt;&lt;/font&gt;&lt;/font&gt;&lt;/font&gt;&lt;/font&gt;" style="whiteSpace=wrap;html=1;fillColor=#dae8fc;strokeColor=#6c8ebf;" vertex="1" parent="1">
          <mxGeometry x="540" y="145" width="120" height="50" as="geometry" />
        </mxCell>
        <mxCell id="GZD0tYihuMyEtxiwArV9-17" value="" style="edgeStyle=orthogonalEdgeStyle;rounded=0;orthogonalLoop=1;jettySize=auto;html=1;" edge="1" parent="1" source="GZD0tYihuMyEtxiwArV9-14" target="GZD0tYihuMyEtxiwArV9-16">
          <mxGeometry relative="1" as="geometry" />
        </mxCell>
        <mxCell id="GZD0tYihuMyEtxiwArV9-14" value="&lt;font style=&quot;vertical-align: inherit;&quot;&gt;&lt;font style=&quot;vertical-align: inherit;&quot;&gt;&lt;font style=&quot;vertical-align: inherit;&quot;&gt;&lt;font style=&quot;vertical-align: inherit;&quot;&gt;&lt;font style=&quot;vertical-align: inherit;&quot;&gt;&lt;font style=&quot;vertical-align: inherit;&quot;&gt;&lt;font style=&quot;vertical-align: inherit;&quot;&gt;&lt;font style=&quot;vertical-align: inherit;&quot;&gt;&lt;font style=&quot;vertical-align: inherit;&quot;&gt;&lt;font style=&quot;vertical-align: inherit;&quot;&gt;เตรียมอุปกรณ์การเรียน&lt;/font&gt;&lt;/font&gt;&lt;/font&gt;&lt;/font&gt;&lt;/font&gt;&lt;/font&gt;&lt;/font&gt;&lt;/font&gt;&lt;/font&gt;&lt;/font&gt;" style="whiteSpace=wrap;html=1;fillColor=#dae8fc;strokeColor=#6c8ebf;" vertex="1" parent="1">
          <mxGeometry x="690" y="145" width="120" height="50" as="geometry" />
        </mxCell>
        <mxCell id="GZD0tYihuMyEtxiwArV9-19" value="" style="edgeStyle=orthogonalEdgeStyle;rounded=0;orthogonalLoop=1;jettySize=auto;html=1;" edge="1" parent="1" source="GZD0tYihuMyEtxiwArV9-16" target="GZD0tYihuMyEtxiwArV9-18">
          <mxGeometry relative="1" as="geometry" />
        </mxCell>
        <mxCell id="GZD0tYihuMyEtxiwArV9-16" value="&lt;font style=&quot;vertical-align: inherit;&quot;&gt;&lt;font style=&quot;vertical-align: inherit;&quot;&gt;ถอดปลั๊กเครื่องใช้ไฟฟ้า&lt;/font&gt;&lt;/font&gt;" style="whiteSpace=wrap;html=1;fillColor=#dae8fc;strokeColor=#6c8ebf;" vertex="1" parent="1">
          <mxGeometry x="690" y="240" width="120" height="50" as="geometry" />
        </mxCell>
        <mxCell id="GZD0tYihuMyEtxiwArV9-21" value="" style="edgeStyle=orthogonalEdgeStyle;rounded=0;orthogonalLoop=1;jettySize=auto;html=1;" edge="1" parent="1" source="GZD0tYihuMyEtxiwArV9-18" target="GZD0tYihuMyEtxiwArV9-20">
          <mxGeometry relative="1" as="geometry" />
        </mxCell>
        <mxCell id="GZD0tYihuMyEtxiwArV9-18" value="&lt;font style=&quot;vertical-align: inherit;&quot;&gt;&lt;font style=&quot;vertical-align: inherit;&quot;&gt;&lt;font style=&quot;vertical-align: inherit;&quot;&gt;&lt;font style=&quot;vertical-align: inherit;&quot;&gt;&lt;font style=&quot;vertical-align: inherit;&quot;&gt;&lt;font style=&quot;vertical-align: inherit;&quot;&gt;&lt;font style=&quot;vertical-align: inherit;&quot;&gt;&lt;font style=&quot;vertical-align: inherit;&quot;&gt;ปิดประตู&lt;/font&gt;&lt;/font&gt;&lt;/font&gt;&lt;/font&gt;&lt;/font&gt;&lt;/font&gt;&lt;/font&gt;&lt;/font&gt;" style="whiteSpace=wrap;html=1;fillColor=#dae8fc;strokeColor=#6c8ebf;" vertex="1" parent="1">
          <mxGeometry x="540" y="240" width="120" height="50" as="geometry" />
        </mxCell>
        <mxCell id="GZD0tYihuMyEtxiwArV9-23" value="" style="edgeStyle=orthogonalEdgeStyle;rounded=0;orthogonalLoop=1;jettySize=auto;html=1;" edge="1" parent="1" source="GZD0tYihuMyEtxiwArV9-20">
          <mxGeometry relative="1" as="geometry">
            <mxPoint x="360" y="265" as="targetPoint" />
          </mxGeometry>
        </mxCell>
        <mxCell id="GZD0tYihuMyEtxiwArV9-20" value="&lt;font style=&quot;vertical-align: inherit;&quot;&gt;&lt;font style=&quot;vertical-align: inherit;&quot;&gt;&lt;font style=&quot;vertical-align: inherit;&quot;&gt;&lt;font style=&quot;vertical-align: inherit;&quot;&gt;&lt;font style=&quot;vertical-align: inherit;&quot;&gt;&lt;font style=&quot;vertical-align: inherit;&quot;&gt;&lt;font style=&quot;vertical-align: inherit;&quot;&gt;&lt;font style=&quot;vertical-align: inherit;&quot;&gt;&lt;font style=&quot;vertical-align: inherit;&quot;&gt;&lt;font style=&quot;vertical-align: inherit;&quot;&gt;เดินลงบันไดหอ&lt;/font&gt;&lt;/font&gt;&lt;/font&gt;&lt;/font&gt;&lt;/font&gt;&lt;/font&gt;&lt;/font&gt;&lt;/font&gt;&lt;/font&gt;&lt;/font&gt;" style="whiteSpace=wrap;html=1;fillColor=#dae8fc;strokeColor=#6c8ebf;" vertex="1" parent="1">
          <mxGeometry x="390" y="240" width="120" height="50" as="geometry" />
        </mxCell>
        <mxCell id="GZD0tYihuMyEtxiwArV9-27" value="" style="edgeStyle=orthogonalEdgeStyle;rounded=0;orthogonalLoop=1;jettySize=auto;html=1;" edge="1" parent="1" source="GZD0tYihuMyEtxiwArV9-24" target="GZD0tYihuMyEtxiwArV9-26">
          <mxGeometry relative="1" as="geometry" />
        </mxCell>
        <mxCell id="GZD0tYihuMyEtxiwArV9-24" value="&lt;font style=&quot;vertical-align: inherit;&quot;&gt;&lt;font style=&quot;vertical-align: inherit;&quot;&gt;ขณะเดินจะมีรถขายกับข้าวอยู๋&lt;/font&gt;&lt;/font&gt;" style="whiteSpace=wrap;html=1;fillColor=#dae8fc;strokeColor=#6c8ebf;" vertex="1" parent="1">
          <mxGeometry x="240" y="240" width="120" height="50" as="geometry" />
        </mxCell>
        <mxCell id="GZD0tYihuMyEtxiwArV9-30" value="" style="edgeStyle=orthogonalEdgeStyle;rounded=0;orthogonalLoop=1;jettySize=auto;html=1;" edge="1" parent="1" source="GZD0tYihuMyEtxiwArV9-26" target="GZD0tYihuMyEtxiwArV9-28">
          <mxGeometry relative="1" as="geometry" />
        </mxCell>
        <mxCell id="GZD0tYihuMyEtxiwArV9-34" value="" style="edgeStyle=orthogonalEdgeStyle;rounded=0;orthogonalLoop=1;jettySize=auto;html=1;" edge="1" parent="1" source="GZD0tYihuMyEtxiwArV9-26" target="GZD0tYihuMyEtxiwArV9-33">
          <mxGeometry relative="1" as="geometry" />
        </mxCell>
        <mxCell id="GZD0tYihuMyEtxiwArV9-26" value="&lt;font style=&quot;vertical-align: inherit;&quot;&gt;&lt;font style=&quot;vertical-align: inherit;&quot;&gt;ซื้อหรือไม่&lt;/font&gt;&lt;/font&gt;" style="rhombus;whiteSpace=wrap;html=1;fillColor=#e1d5e7;strokeColor=#9673a6;" vertex="1" parent="1">
          <mxGeometry x="70" y="225" width="130" height="80" as="geometry" />
        </mxCell>
        <mxCell id="GZD0tYihuMyEtxiwArV9-40" value="" style="edgeStyle=orthogonalEdgeStyle;rounded=0;orthogonalLoop=1;jettySize=auto;html=1;" edge="1" parent="1" source="GZD0tYihuMyEtxiwArV9-28" target="GZD0tYihuMyEtxiwArV9-39">
          <mxGeometry relative="1" as="geometry" />
        </mxCell>
        <mxCell id="GZD0tYihuMyEtxiwArV9-28" value="&lt;font style=&quot;vertical-align: inherit;&quot;&gt;&lt;font style=&quot;vertical-align: inherit;&quot;&gt;&lt;font style=&quot;vertical-align: inherit;&quot;&gt;&lt;font style=&quot;vertical-align: inherit;&quot;&gt;ไม่ซื้อจะไปซื้อที่สหการณื&lt;/font&gt;&lt;/font&gt;&lt;/font&gt;&lt;/font&gt;" style="whiteSpace=wrap;html=1;fillColor=#d5e8d4;strokeColor=#82b366;" vertex="1" parent="1">
          <mxGeometry x="160" y="350" width="130" height="50" as="geometry" />
        </mxCell>
        <mxCell id="GZD0tYihuMyEtxiwArV9-36" value="" style="edgeStyle=orthogonalEdgeStyle;rounded=0;orthogonalLoop=1;jettySize=auto;html=1;entryX=0;entryY=0.5;entryDx=0;entryDy=0;" edge="1" parent="1" source="GZD0tYihuMyEtxiwArV9-33" target="GZD0tYihuMyEtxiwArV9-26">
          <mxGeometry relative="1" as="geometry">
            <mxPoint x="-70" y="375" as="targetPoint" />
            <Array as="points">
              <mxPoint x="10" y="265" />
            </Array>
          </mxGeometry>
        </mxCell>
        <mxCell id="GZD0tYihuMyEtxiwArV9-33" value="&lt;font style=&quot;vertical-align: inherit;&quot;&gt;&lt;font style=&quot;vertical-align: inherit;&quot;&gt;เดินเข้าไปซื้อ&lt;/font&gt;&lt;/font&gt;" style="whiteSpace=wrap;html=1;fillColor=#f8cecc;strokeColor=#b85450;" vertex="1" parent="1">
          <mxGeometry x="10" y="350" width="120" height="50" as="geometry" />
        </mxCell>
        <mxCell id="GZD0tYihuMyEtxiwArV9-37" value="&lt;font style=&quot;vertical-align: inherit;&quot;&gt;&lt;font color=&quot;#ff6666&quot; style=&quot;vertical-align: inherit;&quot;&gt;ไม่ใช่&lt;/font&gt;&lt;/font&gt;" style="text;html=1;strokeColor=none;fillColor=none;align=center;verticalAlign=middle;whiteSpace=wrap;rounded=0;" vertex="1" parent="1">
          <mxGeometry x="10" y="320" width="60" height="30" as="geometry" />
        </mxCell>
        <mxCell id="GZD0tYihuMyEtxiwArV9-38" value="&lt;font style=&quot;vertical-align: inherit;&quot;&gt;&lt;font style=&quot;vertical-align: inherit;&quot;&gt;&lt;font style=&quot;vertical-align: inherit;&quot;&gt;&lt;font color=&quot;#33ff33&quot; style=&quot;vertical-align: inherit;&quot;&gt;ใช่&lt;/font&gt;&lt;/font&gt;&lt;/font&gt;&lt;/font&gt;" style="text;html=1;strokeColor=none;fillColor=none;align=center;verticalAlign=middle;whiteSpace=wrap;rounded=0;" vertex="1" parent="1">
          <mxGeometry x="220" y="320" width="60" height="30" as="geometry" />
        </mxCell>
        <mxCell id="GZD0tYihuMyEtxiwArV9-42" value="" style="edgeStyle=orthogonalEdgeStyle;rounded=0;orthogonalLoop=1;jettySize=auto;html=1;" edge="1" parent="1" source="GZD0tYihuMyEtxiwArV9-39" target="GZD0tYihuMyEtxiwArV9-41">
          <mxGeometry relative="1" as="geometry" />
        </mxCell>
        <mxCell id="GZD0tYihuMyEtxiwArV9-39" value="&lt;font style=&quot;vertical-align: inherit;&quot;&gt;&lt;font style=&quot;vertical-align: inherit;&quot;&gt;&lt;font style=&quot;vertical-align: inherit;&quot;&gt;&lt;font style=&quot;vertical-align: inherit;&quot;&gt;&lt;font style=&quot;vertical-align: inherit;&quot;&gt;&lt;font style=&quot;vertical-align: inherit;&quot;&gt;เดินไปเข้าเเถว&lt;/font&gt;&lt;/font&gt;&lt;/font&gt;&lt;/font&gt;&lt;/font&gt;&lt;/font&gt;" style="whiteSpace=wrap;html=1;fillColor=#dae8fc;strokeColor=#6c8ebf;" vertex="1" parent="1">
          <mxGeometry x="340" y="350" width="120" height="50" as="geometry" />
        </mxCell>
        <mxCell id="GZD0tYihuMyEtxiwArV9-44" value="" style="edgeStyle=orthogonalEdgeStyle;rounded=0;orthogonalLoop=1;jettySize=auto;html=1;" edge="1" parent="1" source="GZD0tYihuMyEtxiwArV9-41" target="GZD0tYihuMyEtxiwArV9-43">
          <mxGeometry relative="1" as="geometry" />
        </mxCell>
        <mxCell id="GZD0tYihuMyEtxiwArV9-41" value="&lt;font style=&quot;vertical-align: inherit;&quot;&gt;&lt;font style=&quot;vertical-align: inherit;&quot;&gt;&lt;font style=&quot;vertical-align: inherit;&quot;&gt;&lt;font style=&quot;vertical-align: inherit;&quot;&gt;&lt;font style=&quot;vertical-align: inherit;&quot;&gt;&lt;font style=&quot;vertical-align: inherit;&quot;&gt;เข้าแถวเสร็จ&lt;/font&gt;&lt;/font&gt;&lt;/font&gt;&lt;/font&gt;&lt;/font&gt;&lt;/font&gt;" style="whiteSpace=wrap;html=1;fillColor=#dae8fc;strokeColor=#6c8ebf;" vertex="1" parent="1">
          <mxGeometry x="510" y="350" width="110" height="50" as="geometry" />
        </mxCell>
        <mxCell id="GZD0tYihuMyEtxiwArV9-46" value="" style="edgeStyle=orthogonalEdgeStyle;rounded=0;orthogonalLoop=1;jettySize=auto;html=1;" edge="1" parent="1" source="GZD0tYihuMyEtxiwArV9-43" target="GZD0tYihuMyEtxiwArV9-45">
          <mxGeometry relative="1" as="geometry" />
        </mxCell>
        <mxCell id="GZD0tYihuMyEtxiwArV9-43" value="&lt;font style=&quot;vertical-align: inherit;&quot;&gt;&lt;font style=&quot;vertical-align: inherit;&quot;&gt;&lt;font style=&quot;vertical-align: inherit;&quot;&gt;&lt;font style=&quot;vertical-align: inherit;&quot;&gt;&lt;font style=&quot;vertical-align: inherit;&quot;&gt;&lt;font style=&quot;vertical-align: inherit;&quot;&gt;ไปซื้อข้าวที่สหการณ์&lt;/font&gt;&lt;/font&gt;&lt;/font&gt;&lt;/font&gt;&lt;/font&gt;&lt;/font&gt;" style="whiteSpace=wrap;html=1;fillColor=#dae8fc;strokeColor=#6c8ebf;" vertex="1" parent="1">
          <mxGeometry x="670" y="350" width="110" height="50" as="geometry" />
        </mxCell>
        <mxCell id="GZD0tYihuMyEtxiwArV9-48" value="" style="edgeStyle=orthogonalEdgeStyle;rounded=0;orthogonalLoop=1;jettySize=auto;html=1;" edge="1" parent="1" source="GZD0tYihuMyEtxiwArV9-45" target="GZD0tYihuMyEtxiwArV9-47">
          <mxGeometry relative="1" as="geometry" />
        </mxCell>
        <mxCell id="GZD0tYihuMyEtxiwArV9-45" value="&lt;font style=&quot;vertical-align: inherit;&quot;&gt;&lt;font style=&quot;vertical-align: inherit;&quot;&gt;&lt;font style=&quot;vertical-align: inherit;&quot;&gt;&lt;font style=&quot;vertical-align: inherit;&quot;&gt;&lt;font style=&quot;vertical-align: inherit;&quot;&gt;&lt;font style=&quot;vertical-align: inherit;&quot;&gt;&lt;font style=&quot;vertical-align: inherit;&quot;&gt;&lt;font style=&quot;vertical-align: inherit;&quot;&gt;เดินขึ้นบันไดไปหน้าห้อง&lt;/font&gt;&lt;/font&gt;&lt;/font&gt;&lt;/font&gt;&lt;/font&gt;&lt;/font&gt;&lt;/font&gt;&lt;/font&gt;" style="whiteSpace=wrap;html=1;fillColor=#dae8fc;strokeColor=#6c8ebf;" vertex="1" parent="1">
          <mxGeometry x="670" y="440" width="110" height="50" as="geometry" />
        </mxCell>
        <mxCell id="GZD0tYihuMyEtxiwArV9-50" value="" style="edgeStyle=orthogonalEdgeStyle;rounded=0;orthogonalLoop=1;jettySize=auto;html=1;" edge="1" parent="1" source="GZD0tYihuMyEtxiwArV9-47" target="GZD0tYihuMyEtxiwArV9-49">
          <mxGeometry relative="1" as="geometry" />
        </mxCell>
        <mxCell id="GZD0tYihuMyEtxiwArV9-47" value="&lt;font style=&quot;vertical-align: inherit;&quot;&gt;&lt;font style=&quot;vertical-align: inherit;&quot;&gt;&lt;font style=&quot;vertical-align: inherit;&quot;&gt;&lt;font style=&quot;vertical-align: inherit;&quot;&gt;&lt;font style=&quot;vertical-align: inherit;&quot;&gt;&lt;font style=&quot;vertical-align: inherit;&quot;&gt;&lt;font style=&quot;vertical-align: inherit;&quot;&gt;&lt;font style=&quot;vertical-align: inherit;&quot;&gt;&lt;font style=&quot;vertical-align: inherit;&quot;&gt;&lt;font style=&quot;vertical-align: inherit;&quot;&gt;นั่งทานข้าว&lt;/font&gt;&lt;/font&gt;&lt;/font&gt;&lt;/font&gt;&lt;/font&gt;&lt;/font&gt;&lt;/font&gt;&lt;/font&gt;&lt;/font&gt;&lt;/font&gt;" style="whiteSpace=wrap;html=1;fillColor=#dae8fc;strokeColor=#6c8ebf;" vertex="1" parent="1">
          <mxGeometry x="520" y="440" width="110" height="50" as="geometry" />
        </mxCell>
        <mxCell id="GZD0tYihuMyEtxiwArV9-54" value="" style="edgeStyle=orthogonalEdgeStyle;rounded=0;orthogonalLoop=1;jettySize=auto;html=1;" edge="1" parent="1" source="GZD0tYihuMyEtxiwArV9-49" target="GZD0tYihuMyEtxiwArV9-53">
          <mxGeometry relative="1" as="geometry" />
        </mxCell>
        <mxCell id="GZD0tYihuMyEtxiwArV9-62" value="" style="edgeStyle=orthogonalEdgeStyle;rounded=0;orthogonalLoop=1;jettySize=auto;html=1;" edge="1" parent="1" source="GZD0tYihuMyEtxiwArV9-49" target="GZD0tYihuMyEtxiwArV9-61">
          <mxGeometry relative="1" as="geometry" />
        </mxCell>
        <mxCell id="GZD0tYihuMyEtxiwArV9-49" value="&lt;font style=&quot;vertical-align: inherit;&quot;&gt;&lt;font style=&quot;vertical-align: inherit;&quot;&gt;อิ่มหรือไม่&lt;/font&gt;&lt;/font&gt;" style="rhombus;whiteSpace=wrap;html=1;fillColor=#e1d5e7;strokeColor=#9673a6;" vertex="1" parent="1">
          <mxGeometry x="340" y="425" width="130" height="80" as="geometry" />
        </mxCell>
        <mxCell id="GZD0tYihuMyEtxiwArV9-60" value="" style="edgeStyle=orthogonalEdgeStyle;rounded=0;orthogonalLoop=1;jettySize=auto;html=1;entryX=0.5;entryY=1;entryDx=0;entryDy=0;" edge="1" parent="1" source="GZD0tYihuMyEtxiwArV9-53" target="GZD0tYihuMyEtxiwArV9-47">
          <mxGeometry relative="1" as="geometry">
            <mxPoint x="545" y="565" as="targetPoint" />
          </mxGeometry>
        </mxCell>
        <mxCell id="GZD0tYihuMyEtxiwArV9-53" value="&lt;font style=&quot;vertical-align: inherit;&quot;&gt;&lt;font style=&quot;vertical-align: inherit;&quot;&gt;&lt;font style=&quot;vertical-align: inherit;&quot;&gt;&lt;font style=&quot;vertical-align: inherit;&quot;&gt;ทานต่อ&lt;/font&gt;&lt;/font&gt;&lt;/font&gt;&lt;/font&gt;" style="whiteSpace=wrap;html=1;fillColor=#f8cecc;strokeColor=#b85450;" vertex="1" parent="1">
          <mxGeometry x="345" y="540" width="120" height="50" as="geometry" />
        </mxCell>
        <mxCell id="GZD0tYihuMyEtxiwArV9-68" value="" style="edgeStyle=orthogonalEdgeStyle;rounded=0;orthogonalLoop=1;jettySize=auto;html=1;" edge="1" parent="1" source="GZD0tYihuMyEtxiwArV9-61" target="GZD0tYihuMyEtxiwArV9-67">
          <mxGeometry relative="1" as="geometry" />
        </mxCell>
        <mxCell id="GZD0tYihuMyEtxiwArV9-61" value="&lt;font style=&quot;vertical-align: inherit;&quot;&gt;&lt;font style=&quot;vertical-align: inherit;&quot;&gt;ดื่มน้ำ&lt;/font&gt;&lt;/font&gt;" style="whiteSpace=wrap;html=1;fillColor=#d5e8d4;strokeColor=#82b366;" vertex="1" parent="1">
          <mxGeometry x="170" y="437.5" width="120" height="55" as="geometry" />
        </mxCell>
        <mxCell id="GZD0tYihuMyEtxiwArV9-63" value="&lt;font style=&quot;vertical-align: inherit;&quot;&gt;&lt;font style=&quot;vertical-align: inherit;&quot;&gt;&lt;font style=&quot;vertical-align: inherit;&quot;&gt;&lt;font color=&quot;#33ff33&quot; style=&quot;vertical-align: inherit;&quot;&gt;อิ่ม&lt;/font&gt;&lt;/font&gt;&lt;/font&gt;&lt;/font&gt;" style="text;html=1;strokeColor=none;fillColor=none;align=center;verticalAlign=middle;whiteSpace=wrap;rounded=0;" vertex="1" parent="1">
          <mxGeometry x="285" y="435" width="60" height="30" as="geometry" />
        </mxCell>
        <mxCell id="GZD0tYihuMyEtxiwArV9-64" value="&lt;font style=&quot;vertical-align: inherit;&quot;&gt;&lt;font style=&quot;vertical-align: inherit;&quot;&gt;&lt;font style=&quot;vertical-align: inherit;&quot;&gt;&lt;font color=&quot;#ff6666&quot; style=&quot;vertical-align: inherit;&quot;&gt;ไม่อิ่ม&lt;/font&gt;&lt;/font&gt;&lt;/font&gt;&lt;/font&gt;" style="text;html=1;strokeColor=none;fillColor=none;align=center;verticalAlign=middle;whiteSpace=wrap;rounded=0;" vertex="1" parent="1">
          <mxGeometry x="490" y="530" width="60" height="30" as="geometry" />
        </mxCell>
        <mxCell id="GZD0tYihuMyEtxiwArV9-70" value="" style="edgeStyle=orthogonalEdgeStyle;rounded=0;orthogonalLoop=1;jettySize=auto;html=1;" edge="1" parent="1" source="GZD0tYihuMyEtxiwArV9-67" target="GZD0tYihuMyEtxiwArV9-69">
          <mxGeometry relative="1" as="geometry" />
        </mxCell>
        <mxCell id="GZD0tYihuMyEtxiwArV9-67" value="&lt;font style=&quot;vertical-align: inherit;&quot;&gt;&lt;font style=&quot;vertical-align: inherit;&quot;&gt;&lt;font style=&quot;vertical-align: inherit;&quot;&gt;&lt;font style=&quot;vertical-align: inherit;&quot;&gt;นั่งรอเข้าเรียน08:00 น.&lt;/font&gt;&lt;/font&gt;&lt;/font&gt;&lt;/font&gt;" style="whiteSpace=wrap;html=1;fillColor=#dae8fc;strokeColor=#6c8ebf;" vertex="1" parent="1">
          <mxGeometry x="10" y="437.5" width="120" height="55" as="geometry" />
        </mxCell>
        <mxCell id="GZD0tYihuMyEtxiwArV9-69" value="&lt;font style=&quot;vertical-align: inherit;&quot;&gt;&lt;font style=&quot;vertical-align: inherit;&quot;&gt;END&lt;/font&gt;&lt;/font&gt;" style="ellipse;whiteSpace=wrap;html=1;fillColor=#fff2cc;strokeColor=#d6b656;" vertex="1" parent="1">
          <mxGeometry x="10" y="550" width="120" height="60" as="geometry" />
        </mxCell>
      </root>
    </mxGraphModel>
  </diagram>
</mxfile>
